<mxfile host="app.diagrams.net" agent="Mozilla/5.0 (Windows NT 10.0; Win64; x64) AppleWebKit/537.36 (KHTML, like Gecko) Chrome/132.0.0.0 Safari/537.36 Edg/132.0.0.0" version="26.0.11">
  <diagram name="Страница — 1" id="RrPOmbapVlJyyc5kfO0U">
    <mxGraphModel dx="2066" dy="1149" grid="1" gridSize="10" guides="1" tooltips="1" connect="1" arrows="1" fold="1" page="1" pageScale="1" pageWidth="827" pageHeight="1169" math="0" shadow="0">
      <root>
        <mxCell id="0" />
        <mxCell id="1" parent="0" />
        <mxCell id="Y3ZM1JjwiEw14T53a0bO-1" value="ISP" style="ellipse;shape=cloud;whiteSpace=wrap;html=1;" vertex="1" parent="1">
          <mxGeometry x="320" y="240" width="120" height="80" as="geometry" />
        </mxCell>
        <mxCell id="Y3ZM1JjwiEw14T53a0bO-7" style="edgeStyle=orthogonalEdgeStyle;rounded=0;orthogonalLoop=1;jettySize=auto;html=1;exitX=0.5;exitY=1;exitDx=0;exitDy=0;entryX=0.5;entryY=0;entryDx=0;entryDy=0;" edge="1" parent="1" source="Y3ZM1JjwiEw14T53a0bO-2" target="Y3ZM1JjwiEw14T53a0bO-3">
          <mxGeometry relative="1" as="geometry" />
        </mxCell>
        <mxCell id="Y3ZM1JjwiEw14T53a0bO-2" value="RTR" style="rounded=1;whiteSpace=wrap;html=1;" vertex="1" parent="1">
          <mxGeometry x="320" y="390" width="120" height="60" as="geometry" />
        </mxCell>
        <mxCell id="Y3ZM1JjwiEw14T53a0bO-3" value="PC" style="rounded=1;whiteSpace=wrap;html=1;" vertex="1" parent="1">
          <mxGeometry x="320" y="570" width="120" height="60" as="geometry" />
        </mxCell>
        <mxCell id="Y3ZM1JjwiEw14T53a0bO-6" style="edgeStyle=orthogonalEdgeStyle;rounded=0;orthogonalLoop=1;jettySize=auto;html=1;exitX=0.55;exitY=0.95;exitDx=0;exitDy=0;exitPerimeter=0;entryX=0.55;entryY=0.167;entryDx=0;entryDy=0;entryPerimeter=0;" edge="1" parent="1" source="Y3ZM1JjwiEw14T53a0bO-1" target="Y3ZM1JjwiEw14T53a0bO-2">
          <mxGeometry relative="1" as="geometry" />
        </mxCell>
        <mxCell id="Y3ZM1JjwiEw14T53a0bO-8" value="DHCP" style="text;html=1;align=center;verticalAlign=middle;resizable=0;points=[];autosize=1;strokeColor=none;fillColor=none;" vertex="1" parent="1">
          <mxGeometry x="250" y="390" width="60" height="30" as="geometry" />
        </mxCell>
        <mxCell id="Y3ZM1JjwiEw14T53a0bO-9" value="192.168.1.0/24" style="text;html=1;align=center;verticalAlign=middle;resizable=0;points=[];autosize=1;strokeColor=none;fillColor=none;" vertex="1" parent="1">
          <mxGeometry x="420" y="360" width="100" height="30" as="geometry" />
        </mxCell>
        <mxCell id="Y3ZM1JjwiEw14T53a0bO-10" value="LAN" style="text;html=1;align=center;verticalAlign=middle;resizable=0;points=[];autosize=1;strokeColor=none;fillColor=none;" vertex="1" parent="1">
          <mxGeometry x="310" y="490" width="50" height="30" as="geometry" />
        </mxCell>
        <mxCell id="Y3ZM1JjwiEw14T53a0bO-11" value="192.168.1.1" style="text;html=1;align=center;verticalAlign=middle;resizable=0;points=[];autosize=1;strokeColor=none;fillColor=none;" vertex="1" parent="1">
          <mxGeometry x="430" y="415" width="90" height="30" as="geometry" />
        </mxCell>
        <mxCell id="Y3ZM1JjwiEw14T53a0bO-12" value="192.168.1.2" style="text;html=1;align=center;verticalAlign=middle;resizable=0;points=[];autosize=1;strokeColor=none;fillColor=none;" vertex="1" parent="1">
          <mxGeometry x="380" y="550" width="90" height="30" as="geometry" />
        </mxCell>
        <mxCell id="Y3ZM1JjwiEw14T53a0bO-13" value="NAT&lt;div&gt;&lt;br&gt;&lt;/div&gt;" style="text;html=1;align=center;verticalAlign=middle;resizable=0;points=[];autosize=1;strokeColor=none;fillColor=none;" vertex="1" parent="1">
          <mxGeometry x="255" y="405" width="50" height="40" as="geometry" />
        </mxCell>
        <mxCell id="Y3ZM1JjwiEw14T53a0bO-14" value="77.232.59.130" style="text;html=1;align=center;verticalAlign=middle;resizable=0;points=[];autosize=1;strokeColor=none;fillColor=none;" vertex="1" parent="1">
          <mxGeometry x="240" y="268" width="100" height="30" as="geometry" />
        </mxCell>
        <mxCell id="Y3ZM1JjwiEw14T53a0bO-15" value="Внешний&amp;nbsp;&lt;div&gt;Адрес&lt;/div&gt;" style="text;html=1;align=center;verticalAlign=middle;resizable=0;points=[];autosize=1;strokeColor=none;fillColor=none;" vertex="1" parent="1">
          <mxGeometry x="255" y="240" width="80" height="40" as="geometry" />
        </mxCell>
        <mxCell id="Y3ZM1JjwiEw14T53a0bO-16" value="Внутренний адрес" style="text;html=1;align=center;verticalAlign=middle;resizable=0;points=[];autosize=1;strokeColor=none;fillColor=none;" vertex="1" parent="1">
          <mxGeometry x="430" y="400" width="130" height="30" as="geometry" />
        </mxCell>
        <mxCell id="Y3ZM1JjwiEw14T53a0bO-17" value="DNS&lt;div&gt;8.8.8.8&lt;/div&gt;" style="text;html=1;align=center;verticalAlign=middle;resizable=0;points=[];autosize=1;strokeColor=none;fillColor=none;" vertex="1" parent="1">
          <mxGeometry x="255" y="365" width="60" height="40" as="geometry" />
        </mxCell>
      </root>
    </mxGraphModel>
  </diagram>
</mxfile>
